<?xml version="1.0" encoding="utf-8" standalone="no"?>
<!DOCTYPE svg PUBLIC "-//W3C//DTD SVG 1.1//EN"
  "http://www.w3.org/Graphics/SVG/1.1/DTD/svg11.dtd">
<svg xmlns:xlink="http://www.w3.org/1999/xlink" width="432pt" height="432pt" viewBox="0 0 432 432" xmlns="http://www.w3.org/2000/svg" version="1.1">
 <metadata>
  <rdf:RDF xmlns:dc="http://purl.org/dc/elements/1.1/" xmlns:cc="http://creativecommons.org/ns#" xmlns:rdf="http://www.w3.org/1999/02/22-rdf-syntax-ns#">
   <cc:Work>
    <dc:type rdf:resource="http://purl.org/dc/dcmitype/StillImage"/>
    <dc:date>2026-06-19T17:53:42.433177</dc:date>
    <dc:format>image/svg+xml</dc:format>
    <dc:creator>
     <cc:Agent>
      <dc:title>Matplotlib v3.11.0, https://matplotlib.org/</dc:title>
     </cc:Agent>
    </dc:creator>
   </cc:Work>
  </rdf:RDF>
 </metadata>
 <defs>
  <style type="text/css">*{stroke-linejoin: round; stroke-linecap: butt}</style>
 </defs>
 <g id="figure_1">
  <g id="patch_1">
   <path d="M 0 432 
L 432 432 
L 432 0 
L 0 0 
z
" style="fill: #ffffff"/>
  </g>
  <g id="axes_1">
   <g id="FillBetweenPolyCollection_1">
    <defs>
     <path id="m06086beccf" d="M 56.602344 -229.761758 
L 56.602344 -42.122344 
L 60.241912 -45.95172 
L 63.88148 -49.781095 
L 67.521048 -53.610471 
L 71.160615 -57.439847 
L 74.800183 -61.269223 
L 78.439751 -65.098599 
L 82.079319 -68.927974 
L 85.718887 -72.75735 
L 89.358455 -76.586726 
L 92.998023 -80.416102 
L 96.637591 -84.245478 
L 100.277159 -88.074853 
L 103.916727 -91.904229 
L 107.556295 -95.733605 
L 111.195863 -99.562981 
L 114.83543 -103.392357 
L 118.474998 -107.221732 
L 122.114566 -111.051108 
L 125.754134 -114.880484 
L 129.393702 -118.70986 
L 133.03327 -122.539235 
L 136.672838 -126.368611 
L 140.312406 -130.197987 
L 143.951974 -134.027363 
L 147.591542 -137.856739 
L 151.23111 -141.686114 
L 154.870678 -145.51549 
L 158.510246 -149.344866 
L 162.149813 -153.174242 
L 165.789381 -157.003618 
L 169.428949 -160.832993 
L 173.068517 -164.662369 
L 176.708085 -168.491745 
L 180.347653 -172.321121 
L 183.987221 -176.150497 
L 187.626789 -179.979872 
L 191.266357 -183.809248 
L 194.905925 -187.638624 
L 198.545493 -191.468 
L 202.185061 -195.297376 
L 205.824629 -199.126751 
L 209.464196 -202.956127 
L 213.103764 -206.785503 
L 216.743332 -210.614879 
L 220.3829 -214.444255 
L 224.022468 -218.27363 
L 227.662036 -222.103006 
L 231.301604 -225.932382 
L 234.941172 -229.761758 
L 234.941172 -229.761758 
L 234.941172 -229.761758 
L 231.301604 -229.761758 
L 227.662036 -229.761758 
L 224.022468 -229.761758 
L 220.3829 -229.761758 
L 216.743332 -229.761758 
L 213.103764 -229.761758 
L 209.464196 -229.761758 
L 205.824629 -229.761758 
L 202.185061 -229.761758 
L 198.545493 -229.761758 
L 194.905925 -229.761758 
L 191.266357 -229.761758 
L 187.626789 -229.761758 
L 183.987221 -229.761758 
L 180.347653 -229.761758 
L 176.708085 -229.761758 
L 173.068517 -229.761758 
L 169.428949 -229.761758 
L 165.789381 -229.761758 
L 162.149813 -229.761758 
L 158.510246 -229.761758 
L 154.870678 -229.761758 
L 151.23111 -229.761758 
L 147.591542 -229.761758 
L 143.951974 -229.761758 
L 140.312406 -229.761758 
L 136.672838 -229.761758 
L 133.03327 -229.761758 
L 129.393702 -229.761758 
L 125.754134 -229.761758 
L 122.114566 -229.761758 
L 118.474998 -229.761758 
L 114.83543 -229.761758 
L 111.195863 -229.761758 
L 107.556295 -229.761758 
L 103.916727 -229.761758 
L 100.277159 -229.761758 
L 96.637591 -229.761758 
L 92.998023 -229.761758 
L 89.358455 -229.761758 
L 85.718887 -229.761758 
L 82.079319 -229.761758 
L 78.439751 -229.761758 
L 74.800183 -229.761758 
L 71.160615 -229.761758 
L 67.521048 -229.761758 
L 63.88148 -229.761758 
L 60.241912 -229.761758 
L 56.602344 -229.761758 
z
" style="stroke: #0000ff; stroke-opacity: 0.2"/>
    </defs>
    <g clip-path="url(#pf6d925498f)">
     <use xlink:href="#m06086beccf" x="0" y="432" style="fill: #0000ff; fill-opacity: 0.2; stroke: #0000ff; stroke-opacity: 0.2"/>
    </g>
   </g>
   <g id="FillBetweenPolyCollection_2">
    <defs>
     <path id="md3de43055f" d="M 56.602344 -229.761758 
L 56.602344 -417.401172 
L 101.187051 -417.401172 
L 145.771758 -417.401172 
L 190.356465 -417.401172 
L 234.941172 -417.401172 
L 234.941172 -229.761758 
L 234.941172 -229.761758 
L 190.356465 -229.761758 
L 145.771758 -229.761758 
L 101.187051 -229.761758 
L 56.602344 -229.761758 
z
" style="stroke: #000000; stroke-opacity: 0.1"/>
    </defs>
    <g clip-path="url(#pf6d925498f)">
     <use xlink:href="#md3de43055f" x="0" y="432" style="fill-opacity: 0.1; stroke: #000000; stroke-opacity: 0.1"/>
    </g>
   </g>
   <g id="FillBetweenPolyCollection_3">
    <defs>
     <path id="mb02f48f4ef" d="M 234.941172 -229.761758 
L 234.941172 -42.122344 
L 279.525879 -42.122344 
L 324.110586 -42.122344 
L 368.695293 -42.122344 
L 413.28 -42.122344 
L 413.28 -229.761758 
L 413.28 -229.761758 
L 368.695293 -229.761758 
L 324.110586 -229.761758 
L 279.525879 -229.761758 
L 234.941172 -229.761758 
z
" style="stroke: #000000; stroke-opacity: 0.1"/>
    </defs>
    <g clip-path="url(#pf6d925498f)">
     <use xlink:href="#mb02f48f4ef" x="0" y="432" style="fill-opacity: 0.1; stroke: #000000; stroke-opacity: 0.1"/>
    </g>
   </g>
   <g id="matplotlib.axis_1">
    <g id="xtick_1">
     <g id="line2d_1">
      <path d="M 56.602344 389.877656 
L 56.602344 14.598828 
" clip-path="url(#pf6d925498f)" style="fill: none; stroke: #b0b0b0; stroke-opacity: 0.5; stroke-width: 0.8; stroke-linecap: square"/>
     </g>
     <g id="line2d_2">
      <defs>
       <path id="m38c8f9e728" d="M 0 0 
L 0 3.5 
" style="stroke: #000000; stroke-width: 0.8"/>
      </defs>
      <g>
       <use xlink:href="#m38c8f9e728" x="56.602344" y="389.877656" style="stroke: #000000; stroke-width: 0.8"/>
      </g>
     </g>
     <g id="text_1">
      <!-- −1.0 -->
      <g transform="translate(44.460938 404.475312) scale(0.1 -0.1)">
       <defs>
        <path id="DejaVuSans-c9c" d="M 678 2272 
L 4684 2272 
L 4684 1741 
L 678 1741 
L 678 2272 
z
" transform="scale(0.015625)"/>
        <path id="DejaVuSans-14" d="M 794 531 
L 1825 531 
L 1825 4091 
L 703 3866 
L 703 4441 
L 1819 4666 
L 2450 4666 
L 2450 531 
L 3481 531 
L 3481 0 
L 794 0 
L 794 531 
z
" transform="scale(0.015625)"/>
        <path id="DejaVuSans-11" d="M 684 794 
L 1344 794 
L 1344 0 
L 684 0 
L 684 794 
z
" transform="scale(0.015625)"/>
        <path id="DejaVuSans-13" d="M 2034 4250 
Q 1547 4250 1301 3770 
Q 1056 3291 1056 2328 
Q 1056 1369 1301 889 
Q 1547 409 2034 409 
Q 2525 409 2770 889 
Q 3016 1369 3016 2328 
Q 3016 3291 2770 3770 
Q 2525 4250 2034 4250 
z
M 2034 4750 
Q 2819 4750 3233 4129 
Q 3647 3509 3647 2328 
Q 3647 1150 3233 529 
Q 2819 -91 2034 -91 
Q 1250 -91 836 529 
Q 422 1150 422 2328 
Q 422 3509 836 4129 
Q 1250 4750 2034 4750 
z
" transform="scale(0.015625)"/>
       </defs>
       <use xlink:href="#DejaVuSans-c9c"/>
       <use xlink:href="#DejaVuSans-14" transform="translate(83.796875 0)"/>
       <use xlink:href="#DejaVuSans-11" transform="translate(147.421875 0)"/>
       <use xlink:href="#DejaVuSans-13" transform="translate(179.203125 0)"/>
      </g>
     </g>
    </g>
    <g id="xtick_2">
     <g id="line2d_3">
      <path d="M 145.771758 389.877656 
L 145.771758 14.598828 
" clip-path="url(#pf6d925498f)" style="fill: none; stroke: #b0b0b0; stroke-opacity: 0.5; stroke-width: 0.8; stroke-linecap: square"/>
     </g>
     <g id="line2d_4">
      <g>
       <use xlink:href="#m38c8f9e728" x="145.771758" y="389.877656" style="stroke: #000000; stroke-width: 0.8"/>
      </g>
     </g>
     <g id="text_2">
      <!-- −0.5 -->
      <g transform="translate(133.630352 404.475312) scale(0.1 -0.1)">
       <defs>
        <path id="DejaVuSans-18" d="M 691 4666 
L 3169 4666 
L 3169 4134 
L 1269 4134 
L 1269 2991 
Q 1406 3038 1543 3061 
Q 1681 3084 1819 3084 
Q 2600 3084 3056 2656 
Q 3513 2228 3513 1497 
Q 3513 744 3044 326 
Q 2575 -91 1722 -91 
Q 1428 -91 1123 -41 
Q 819 9 494 109 
L 494 744 
Q 775 591 1075 516 
Q 1375 441 1709 441 
Q 2250 441 2565 725 
Q 2881 1009 2881 1497 
Q 2881 1984 2565 2268 
Q 2250 2553 1709 2553 
Q 1456 2553 1204 2497 
Q 953 2441 691 2322 
L 691 4666 
z
" transform="scale(0.015625)"/>
       </defs>
       <use xlink:href="#DejaVuSans-c9c"/>
       <use xlink:href="#DejaVuSans-13" transform="translate(83.796875 0)"/>
       <use xlink:href="#DejaVuSans-11" transform="translate(147.421875 0)"/>
       <use xlink:href="#DejaVuSans-18" transform="translate(179.203125 0)"/>
      </g>
     </g>
    </g>
    <g id="xtick_3">
     <g id="line2d_5">
      <path d="M 234.941172 389.877656 
L 234.941172 14.598828 
" clip-path="url(#pf6d925498f)" style="fill: none; stroke: #b0b0b0; stroke-opacity: 0.5; stroke-width: 0.8; stroke-linecap: square"/>
     </g>
     <g id="line2d_6">
      <g>
       <use xlink:href="#m38c8f9e728" x="234.941172" y="389.877656" style="stroke: #000000; stroke-width: 0.8"/>
      </g>
     </g>
     <g id="text_3">
      <!-- 0.0 -->
      <g transform="translate(226.989609 404.475312) scale(0.1 -0.1)">
       <use xlink:href="#DejaVuSans-13"/>
       <use xlink:href="#DejaVuSans-11" transform="translate(63.625 0)"/>
       <use xlink:href="#DejaVuSans-13" transform="translate(95.40625 0)"/>
      </g>
     </g>
    </g>
    <g id="xtick_4">
     <g id="line2d_7">
      <path d="M 324.110586 389.877656 
L 324.110586 14.598828 
" clip-path="url(#pf6d925498f)" style="fill: none; stroke: #b0b0b0; stroke-opacity: 0.5; stroke-width: 0.8; stroke-linecap: square"/>
     </g>
     <g id="line2d_8">
      <g>
       <use xlink:href="#m38c8f9e728" x="324.110586" y="389.877656" style="stroke: #000000; stroke-width: 0.8"/>
      </g>
     </g>
     <g id="text_4">
      <!-- 0.5 -->
      <g transform="translate(316.159023 404.475312) scale(0.1 -0.1)">
       <use xlink:href="#DejaVuSans-13"/>
       <use xlink:href="#DejaVuSans-11" transform="translate(63.625 0)"/>
       <use xlink:href="#DejaVuSans-18" transform="translate(95.40625 0)"/>
      </g>
     </g>
    </g>
    <g id="xtick_5">
     <g id="line2d_9">
      <path d="M 413.28 389.877656 
L 413.28 14.598828 
" clip-path="url(#pf6d925498f)" style="fill: none; stroke: #b0b0b0; stroke-opacity: 0.5; stroke-width: 0.8; stroke-linecap: square"/>
     </g>
     <g id="line2d_10">
      <g>
       <use xlink:href="#m38c8f9e728" x="413.28" y="389.877656" style="stroke: #000000; stroke-width: 0.8"/>
      </g>
     </g>
     <g id="text_5">
      <!-- 1.0 -->
      <g transform="translate(405.328437 404.475312) scale(0.1 -0.1)">
       <use xlink:href="#DejaVuSans-14"/>
       <use xlink:href="#DejaVuSans-11" transform="translate(63.625 0)"/>
       <use xlink:href="#DejaVuSans-13" transform="translate(95.40625 0)"/>
      </g>
     </g>
    </g>
    <g id="text_6">
     <!-- Relative Displacement $\delta$ -->
     <g transform="translate(174.141172 418.477656) scale(0.1 -0.1)">
      <defs>
       <path id="DejaVuSans-35" d="M 2841 2188 
Q 3044 2119 3236 1894 
Q 3428 1669 3622 1275 
L 4263 0 
L 3584 0 
L 2988 1197 
Q 2756 1666 2539 1819 
Q 2322 1972 1947 1972 
L 1259 1972 
L 1259 0 
L 628 0 
L 628 4666 
L 2053 4666 
Q 2853 4666 3247 4331 
Q 3641 3997 3641 3322 
Q 3641 2881 3436 2590 
Q 3231 2300 2841 2188 
z
M 1259 4147 
L 1259 2491 
L 2053 2491 
Q 2509 2491 2742 2702 
Q 2975 2913 2975 3322 
Q 2975 3731 2742 3939 
Q 2509 4147 2053 4147 
L 1259 4147 
z
" transform="scale(0.015625)"/>
       <path id="DejaVuSans-48" d="M 3597 1894 
L 3597 1613 
L 953 1613 
Q 991 1019 1311 708 
Q 1631 397 2203 397 
Q 2534 397 2845 478 
Q 3156 559 3463 722 
L 3463 178 
Q 3153 47 2828 -22 
Q 2503 -91 2169 -91 
Q 1331 -91 842 396 
Q 353 884 353 1716 
Q 353 2575 817 3079 
Q 1281 3584 2069 3584 
Q 2775 3584 3186 3129 
Q 3597 2675 3597 1894 
z
M 3022 2063 
Q 3016 2534 2758 2815 
Q 2500 3097 2075 3097 
Q 1594 3097 1305 2825 
Q 1016 2553 972 2059 
L 3022 2063 
z
" transform="scale(0.015625)"/>
       <path id="DejaVuSans-4f" d="M 603 4863 
L 1178 4863 
L 1178 0 
L 603 0 
L 603 4863 
z
" transform="scale(0.015625)"/>
       <path id="DejaVuSans-44" d="M 2194 1759 
Q 1497 1759 1228 1600 
Q 959 1441 959 1056 
Q 959 750 1161 570 
Q 1363 391 1709 391 
Q 2188 391 2477 730 
Q 2766 1069 2766 1631 
L 2766 1759 
L 2194 1759 
z
M 3341 1997 
L 3341 0 
L 2766 0 
L 2766 531 
Q 2569 213 2275 61 
Q 1981 -91 1556 -91 
Q 1019 -91 701 211 
Q 384 513 384 1019 
Q 384 1609 779 1909 
Q 1175 2209 1959 2209 
L 2766 2209 
L 2766 2266 
Q 2766 2663 2505 2880 
Q 2244 3097 1772 3097 
Q 1472 3097 1187 3025 
Q 903 2953 641 2809 
L 641 3341 
Q 956 3463 1253 3523 
Q 1550 3584 1831 3584 
Q 2591 3584 2966 3190 
Q 3341 2797 3341 1997 
z
" transform="scale(0.015625)"/>
       <path id="DejaVuSans-57" d="M 1172 4494 
L 1172 3500 
L 2356 3500 
L 2356 3053 
L 1172 3053 
L 1172 1153 
Q 1172 725 1289 603 
Q 1406 481 1766 481 
L 2356 481 
L 2356 0 
L 1766 0 
Q 1100 0 847 248 
Q 594 497 594 1153 
L 594 3053 
L 172 3053 
L 172 3500 
L 594 3500 
L 594 4494 
L 1172 4494 
z
" transform="scale(0.015625)"/>
       <path id="DejaVuSans-4c" d="M 603 3500 
L 1178 3500 
L 1178 0 
L 603 0 
L 603 3500 
z
M 603 4863 
L 1178 4863 
L 1178 4134 
L 603 4134 
L 603 4863 
z
" transform="scale(0.015625)"/>
       <path id="DejaVuSans-59" d="M 191 3500 
L 800 3500 
L 1894 563 
L 2988 3500 
L 3597 3500 
L 2284 0 
L 1503 0 
L 191 3500 
z
" transform="scale(0.015625)"/>
       <path id="DejaVuSans-3" transform="scale(0.015625)"/>
       <path id="DejaVuSans-27" d="M 1259 4147 
L 1259 519 
L 2022 519 
Q 2988 519 3436 956 
Q 3884 1394 3884 2338 
Q 3884 3275 3436 3711 
Q 2988 4147 2022 4147 
L 1259 4147 
z
M 628 4666 
L 1925 4666 
Q 3281 4666 3915 4102 
Q 4550 3538 4550 2338 
Q 4550 1131 3912 565 
Q 3275 0 1925 0 
L 628 0 
L 628 4666 
z
" transform="scale(0.015625)"/>
       <path id="DejaVuSans-56" d="M 2834 3397 
L 2834 2853 
Q 2591 2978 2328 3040 
Q 2066 3103 1784 3103 
Q 1356 3103 1142 2972 
Q 928 2841 928 2578 
Q 928 2378 1081 2264 
Q 1234 2150 1697 2047 
L 1894 2003 
Q 2506 1872 2764 1633 
Q 3022 1394 3022 966 
Q 3022 478 2636 193 
Q 2250 -91 1575 -91 
Q 1294 -91 989 -36 
Q 684 19 347 128 
L 347 722 
Q 666 556 975 473 
Q 1284 391 1588 391 
Q 1994 391 2212 530 
Q 2431 669 2431 922 
Q 2431 1156 2273 1281 
Q 2116 1406 1581 1522 
L 1381 1569 
Q 847 1681 609 1914 
Q 372 2147 372 2553 
Q 372 3047 722 3315 
Q 1072 3584 1716 3584 
Q 2034 3584 2315 3537 
Q 2597 3491 2834 3397 
z
" transform="scale(0.015625)"/>
       <path id="DejaVuSans-53" d="M 1159 525 
L 1159 -1331 
L 581 -1331 
L 581 3500 
L 1159 3500 
L 1159 2969 
Q 1341 3281 1617 3432 
Q 1894 3584 2278 3584 
Q 2916 3584 3314 3078 
Q 3713 2572 3713 1747 
Q 3713 922 3314 415 
Q 2916 -91 2278 -91 
Q 1894 -91 1617 61 
Q 1341 213 1159 525 
z
M 3116 1747 
Q 3116 2381 2855 2742 
Q 2594 3103 2138 3103 
Q 1681 3103 1420 2742 
Q 1159 2381 1159 1747 
Q 1159 1113 1420 752 
Q 1681 391 2138 391 
Q 2594 391 2855 752 
Q 3116 1113 3116 1747 
z
" transform="scale(0.015625)"/>
       <path id="DejaVuSans-46" d="M 3122 3366 
L 3122 2828 
Q 2878 2963 2633 3030 
Q 2388 3097 2138 3097 
Q 1578 3097 1268 2742 
Q 959 2388 959 1747 
Q 959 1106 1268 751 
Q 1578 397 2138 397 
Q 2388 397 2633 464 
Q 2878 531 3122 666 
L 3122 134 
Q 2881 22 2623 -34 
Q 2366 -91 2075 -91 
Q 1284 -91 818 406 
Q 353 903 353 1747 
Q 353 2603 823 3093 
Q 1294 3584 2113 3584 
Q 2378 3584 2631 3529 
Q 2884 3475 3122 3366 
z
" transform="scale(0.015625)"/>
       <path id="DejaVuSans-50" d="M 3328 2828 
Q 3544 3216 3844 3400 
Q 4144 3584 4550 3584 
Q 5097 3584 5394 3201 
Q 5691 2819 5691 2113 
L 5691 0 
L 5113 0 
L 5113 2094 
Q 5113 2597 4934 2840 
Q 4756 3084 4391 3084 
Q 3944 3084 3684 2787 
Q 3425 2491 3425 1978 
L 3425 0 
L 2847 0 
L 2847 2094 
Q 2847 2600 2669 2842 
Q 2491 3084 2119 3084 
Q 1678 3084 1418 2786 
Q 1159 2488 1159 1978 
L 1159 0 
L 581 0 
L 581 3500 
L 1159 3500 
L 1159 2956 
Q 1356 3278 1631 3431 
Q 1906 3584 2284 3584 
Q 2666 3584 2933 3390 
Q 3200 3197 3328 2828 
z
" transform="scale(0.015625)"/>
       <path id="DejaVuSans-51" d="M 3513 2113 
L 3513 0 
L 2938 0 
L 2938 2094 
Q 2938 2591 2744 2837 
Q 2550 3084 2163 3084 
Q 1697 3084 1428 2787 
Q 1159 2491 1159 1978 
L 1159 0 
L 581 0 
L 581 3500 
L 1159 3500 
L 1159 2956 
Q 1366 3272 1645 3428 
Q 1925 3584 2291 3584 
Q 2894 3584 3203 3211 
Q 3513 2838 3513 2113 
z
" transform="scale(0.015625)"/>
       <path id="DejaVuSans-Oblique-348" d="M 3472 4053 
Q 3197 4272 2450 4272 
Q 1659 4272 1588 3906 
Q 1531 3619 2328 3469 
Q 2953 3353 3253 3003 
Q 3616 2581 3447 1716 
Q 3284 888 2763 400 
Q 2238 -91 1488 -91 
Q 741 -91 406 400 
Q 72 888 241 1747 
Q 363 2384 891 2900 
Q 1097 3100 1353 3213 
Q 913 3459 1000 3900 
Q 1166 4750 2544 4750 
Q 3234 4750 3566 4531 
L 3472 4053 
z
M 1753 3056 
Q 1525 2966 1306 2738 
Q 969 2384 847 1747 
Q 722 1113 919 756 
Q 1119 397 1584 397 
Q 2044 397 2381 759 
Q 2722 1122 2838 1716 
Q 2956 2338 2731 2638 
Q 2491 2959 2103 2994 
Q 1906 3013 1753 3056 
z
" transform="scale(0.015625)"/>
      </defs>
      <use xlink:href="#DejaVuSans-35" transform="translate(0 0.015625)"/>
      <use xlink:href="#DejaVuSans-48" transform="translate(65.482422 0.015625)"/>
      <use xlink:href="#DejaVuSans-4f" transform="translate(127.005859 0.015625)"/>
      <use xlink:href="#DejaVuSans-44" transform="translate(154.789062 0.015625)"/>
      <use xlink:href="#DejaVuSans-57" transform="translate(216.068359 0.015625)"/>
      <use xlink:href="#DejaVuSans-4c" transform="translate(255.277344 0.015625)"/>
      <use xlink:href="#DejaVuSans-59" transform="translate(283.060547 0.015625)"/>
      <use xlink:href="#DejaVuSans-48" transform="translate(342.240234 0.015625)"/>
      <use xlink:href="#DejaVuSans-3" transform="translate(403.763672 0.015625)"/>
      <use xlink:href="#DejaVuSans-27" transform="translate(435.550781 0.015625)"/>
      <use xlink:href="#DejaVuSans-4c" transform="translate(512.552734 0.015625)"/>
      <use xlink:href="#DejaVuSans-56" transform="translate(540.335938 0.015625)"/>
      <use xlink:href="#DejaVuSans-53" transform="translate(592.435547 0.015625)"/>
      <use xlink:href="#DejaVuSans-4f" transform="translate(655.912109 0.015625)"/>
      <use xlink:href="#DejaVuSans-44" transform="translate(683.695312 0.015625)"/>
      <use xlink:href="#DejaVuSans-46" transform="translate(744.974609 0.015625)"/>
      <use xlink:href="#DejaVuSans-48" transform="translate(799.955078 0.015625)"/>
      <use xlink:href="#DejaVuSans-50" transform="translate(861.478516 0.015625)"/>
      <use xlink:href="#DejaVuSans-48" transform="translate(958.890625 0.015625)"/>
      <use xlink:href="#DejaVuSans-51" transform="translate(1020.414062 0.015625)"/>
      <use xlink:href="#DejaVuSans-57" transform="translate(1083.792969 0.015625)"/>
      <use xlink:href="#DejaVuSans-3" transform="translate(1123.001953 0.015625)"/>
      <use xlink:href="#DejaVuSans-Oblique-348" transform="translate(1154.789062 0.015625)"/>
     </g>
    </g>
   </g>
   <g id="matplotlib.axis_2">
    <g id="ytick_1">
     <g id="line2d_11">
      <path d="M 56.602344 389.877656 
L 413.28 389.877656 
" clip-path="url(#pf6d925498f)" style="fill: none; stroke: #b0b0b0; stroke-opacity: 0.5; stroke-width: 0.8; stroke-linecap: square"/>
     </g>
     <g id="line2d_12">
      <defs>
       <path id="m766e26d31d" d="M 0 0 
L -3.5 0 
" style="stroke: #000000; stroke-width: 0.8"/>
      </defs>
      <g>
       <use xlink:href="#m766e26d31d" x="56.602344" y="389.877656" style="stroke: #000000; stroke-width: 0.8"/>
      </g>
     </g>
     <g id="text_7">
      <!-- −1.0 -->
      <g transform="translate(25.319531 393.676484) scale(0.1 -0.1)">
       <use xlink:href="#DejaVuSans-c9c"/>
       <use xlink:href="#DejaVuSans-14" transform="translate(83.796875 0)"/>
       <use xlink:href="#DejaVuSans-11" transform="translate(147.421875 0)"/>
       <use xlink:href="#DejaVuSans-13" transform="translate(179.203125 0)"/>
      </g>
     </g>
    </g>
    <g id="ytick_2">
     <g id="line2d_13">
      <path d="M 56.602344 296.057949 
L 413.28 296.057949 
" clip-path="url(#pf6d925498f)" style="fill: none; stroke: #b0b0b0; stroke-opacity: 0.5; stroke-width: 0.8; stroke-linecap: square"/>
     </g>
     <g id="line2d_14">
      <g>
       <use xlink:href="#m766e26d31d" x="56.602344" y="296.057949" style="stroke: #000000; stroke-width: 0.8"/>
      </g>
     </g>
     <g id="text_8">
      <!-- −0.5 -->
      <g transform="translate(25.319531 299.856777) scale(0.1 -0.1)">
       <use xlink:href="#DejaVuSans-c9c"/>
       <use xlink:href="#DejaVuSans-13" transform="translate(83.796875 0)"/>
       <use xlink:href="#DejaVuSans-11" transform="translate(147.421875 0)"/>
       <use xlink:href="#DejaVuSans-18" transform="translate(179.203125 0)"/>
      </g>
     </g>
    </g>
    <g id="ytick_3">
     <g id="line2d_15">
      <path d="M 56.602344 202.238242 
L 413.28 202.238242 
" clip-path="url(#pf6d925498f)" style="fill: none; stroke: #b0b0b0; stroke-opacity: 0.5; stroke-width: 0.8; stroke-linecap: square"/>
     </g>
     <g id="line2d_16">
      <g>
       <use xlink:href="#m766e26d31d" x="56.602344" y="202.238242" style="stroke: #000000; stroke-width: 0.8"/>
      </g>
     </g>
     <g id="text_9">
      <!-- 0.0 -->
      <g transform="translate(33.699219 206.03707) scale(0.1 -0.1)">
       <use xlink:href="#DejaVuSans-13"/>
       <use xlink:href="#DejaVuSans-11" transform="translate(63.625 0)"/>
       <use xlink:href="#DejaVuSans-13" transform="translate(95.40625 0)"/>
      </g>
     </g>
    </g>
    <g id="ytick_4">
     <g id="line2d_17">
      <path d="M 56.602344 108.418535 
L 413.28 108.418535 
" clip-path="url(#pf6d925498f)" style="fill: none; stroke: #b0b0b0; stroke-opacity: 0.5; stroke-width: 0.8; stroke-linecap: square"/>
     </g>
     <g id="line2d_18">
      <g>
       <use xlink:href="#m766e26d31d" x="56.602344" y="108.418535" style="stroke: #000000; stroke-width: 0.8"/>
      </g>
     </g>
     <g id="text_10">
      <!-- 0.5 -->
      <g transform="translate(33.699219 112.217363) scale(0.1 -0.1)">
       <use xlink:href="#DejaVuSans-13"/>
       <use xlink:href="#DejaVuSans-11" transform="translate(63.625 0)"/>
       <use xlink:href="#DejaVuSans-18" transform="translate(95.40625 0)"/>
      </g>
     </g>
    </g>
    <g id="ytick_5">
     <g id="line2d_19">
      <path d="M 56.602344 14.598828 
L 413.28 14.598828 
" clip-path="url(#pf6d925498f)" style="fill: none; stroke: #b0b0b0; stroke-opacity: 0.5; stroke-width: 0.8; stroke-linecap: square"/>
     </g>
     <g id="line2d_20">
      <g>
       <use xlink:href="#m766e26d31d" x="56.602344" y="14.598828" style="stroke: #000000; stroke-width: 0.8"/>
      </g>
     </g>
     <g id="text_11">
      <!-- 1.0 -->
      <g transform="translate(33.699219 18.397656) scale(0.1 -0.1)">
       <use xlink:href="#DejaVuSans-14"/>
       <use xlink:href="#DejaVuSans-11" transform="translate(63.625 0)"/>
       <use xlink:href="#DejaVuSans-13" transform="translate(95.40625 0)"/>
      </g>
     </g>
    </g>
    <g id="text_12">
     <!-- Axial Force $F$ -->
     <g transform="translate(18.917188 234.038242) rotate(-90) scale(0.1 -0.1)">
      <defs>
       <path id="DejaVuSans-24" d="M 2188 4044 
L 1331 1722 
L 3047 1722 
L 2188 4044 
z
M 1831 4666 
L 2547 4666 
L 4325 0 
L 3669 0 
L 3244 1197 
L 1141 1197 
L 716 0 
L 50 0 
L 1831 4666 
z
" transform="scale(0.015625)"/>
       <path id="DejaVuSans-5b" d="M 3513 3500 
L 2247 1797 
L 3578 0 
L 2900 0 
L 1881 1375 
L 863 0 
L 184 0 
L 1544 1831 
L 300 3500 
L 978 3500 
L 1906 2253 
L 2834 3500 
L 3513 3500 
z
" transform="scale(0.015625)"/>
       <path id="DejaVuSans-29" d="M 628 4666 
L 3309 4666 
L 3309 4134 
L 1259 4134 
L 1259 2759 
L 3109 2759 
L 3109 2228 
L 1259 2228 
L 1259 0 
L 628 0 
L 628 4666 
z
" transform="scale(0.015625)"/>
       <path id="DejaVuSans-52" d="M 1959 3097 
Q 1497 3097 1228 2736 
Q 959 2375 959 1747 
Q 959 1119 1226 758 
Q 1494 397 1959 397 
Q 2419 397 2687 759 
Q 2956 1122 2956 1747 
Q 2956 2369 2687 2733 
Q 2419 3097 1959 3097 
z
M 1959 3584 
Q 2709 3584 3137 3096 
Q 3566 2609 3566 1747 
Q 3566 888 3137 398 
Q 2709 -91 1959 -91 
Q 1206 -91 779 398 
Q 353 888 353 1747 
Q 353 2609 779 3096 
Q 1206 3584 1959 3584 
z
" transform="scale(0.015625)"/>
       <path id="DejaVuSans-55" d="M 2631 2963 
Q 2534 3019 2420 3045 
Q 2306 3072 2169 3072 
Q 1681 3072 1420 2755 
Q 1159 2438 1159 1844 
L 1159 0 
L 581 0 
L 581 3500 
L 1159 3500 
L 1159 2956 
Q 1341 3275 1631 3429 
Q 1922 3584 2338 3584 
Q 2397 3584 2469 3576 
Q 2541 3569 2628 3553 
L 2631 2963 
z
" transform="scale(0.015625)"/>
       <path id="DejaVuSans-Oblique-29" d="M 1081 4666 
L 3756 4666 
L 3653 4134 
L 1606 4134 
L 1338 2759 
L 3188 2759 
L 3084 2228 
L 1234 2228 
L 800 0 
L 172 0 
L 1081 4666 
z
" transform="scale(0.015625)"/>
      </defs>
      <use xlink:href="#DejaVuSans-24" transform="translate(0 0.015625)"/>
      <use xlink:href="#DejaVuSans-5b" transform="translate(68.408203 0.015625)"/>
      <use xlink:href="#DejaVuSans-4c" transform="translate(127.587891 0.015625)"/>
      <use xlink:href="#DejaVuSans-44" transform="translate(155.371094 0.015625)"/>
      <use xlink:href="#DejaVuSans-4f" transform="translate(216.650391 0.015625)"/>
      <use xlink:href="#DejaVuSans-3" transform="translate(244.433594 0.015625)"/>
      <use xlink:href="#DejaVuSans-29" transform="translate(276.220703 0.015625)"/>
      <use xlink:href="#DejaVuSans-52" transform="translate(329.740234 0.015625)"/>
      <use xlink:href="#DejaVuSans-55" transform="translate(390.921875 0.015625)"/>
      <use xlink:href="#DejaVuSans-46" transform="translate(430.035156 0.015625)"/>
      <use xlink:href="#DejaVuSans-48" transform="translate(485.015625 0.015625)"/>
      <use xlink:href="#DejaVuSans-3" transform="translate(546.539062 0.015625)"/>
      <use xlink:href="#DejaVuSans-Oblique-29" transform="translate(578.326172 0.015625)"/>
     </g>
    </g>
   </g>
   <g id="LineCollection_1">
    <path d="M 20.934578 202.238242 
L 433 202.238242 
" clip-path="url(#pf6d925498f)" style="fill: none; stroke: #000000; stroke-opacity: 0.7; stroke-width: 1.5"/>
   </g>
   <g id="LineCollection_2">
    <path d="M 234.941172 427.405539 
L 234.941172 -1 
" clip-path="url(#pf6d925498f)" style="fill: none; stroke: #000000; stroke-opacity: 0.7; stroke-width: 1.5"/>
   </g>
   <g id="LineCollection_3">
    <path d="M 145.771758 296.057949 
L 145.771758 333.585832 
" clip-path="url(#pf6d925498f)" style="fill: none; stroke-dasharray: 5.55,2.4; stroke-dashoffset: 0; stroke: #000000; stroke-width: 1.5"/>
   </g>
   <g id="LineCollection_4">
    <path d="M 145.771758 333.585832 
L 110.103992 333.585832 
" clip-path="url(#pf6d925498f)" style="fill: none; stroke-dasharray: 5.55,2.4; stroke-dashoffset: 0; stroke: #000000; stroke-width: 1.5"/>
   </g>
   <g id="line2d_21">
    <path d="M 234.941172 202.238242 
L 238.58074 202.238242 
L 242.220308 202.238242 
L 245.859876 202.238242 
L 249.499444 202.238242 
L 253.139011 202.238242 
L 256.778579 202.238242 
L 260.418147 202.238242 
L 264.057715 202.238242 
L 267.697283 202.238242 
L 271.336851 202.238242 
L 274.976419 202.238242 
L 278.615987 202.238242 
L 282.255555 202.238242 
L 285.895123 202.238242 
L 289.534691 202.238242 
L 293.174259 202.238242 
L 296.813827 202.238242 
L 300.453394 202.238242 
L 304.092962 202.238242 
L 307.73253 202.238242 
L 311.372098 202.238242 
L 315.011666 202.238242 
L 318.651234 202.238242 
L 322.290802 202.238242 
L 325.93037 202.238242 
L 329.569938 202.238242 
L 333.209506 202.238242 
L 336.849074 202.238242 
L 340.488642 202.238242 
L 344.12821 202.238242 
L 347.767777 202.238242 
L 351.407345 202.238242 
L 355.046913 202.238242 
L 358.686481 202.238242 
L 362.326049 202.238242 
L 365.965617 202.238242 
L 369.605185 202.238242 
L 373.244753 202.238242 
L 376.884321 202.238242 
L 380.523889 202.238242 
L 384.163457 202.238242 
L 387.803025 202.238242 
L 391.442592 202.238242 
L 395.08216 202.238242 
L 398.721728 202.238242 
L 402.361296 202.238242 
L 406.000864 202.238242 
L 409.640432 202.238242 
L 413.28 202.238242 
" clip-path="url(#pf6d925498f)" style="fill: none; stroke: #ff0000; stroke-width: 4; stroke-linecap: square"/>
   </g>
   <g id="line2d_22">
    <path d="M 56.602344 389.877656 
L 60.241912 386.04828 
L 63.88148 382.218905 
L 67.521048 378.389529 
L 71.160615 374.560153 
L 74.800183 370.730777 
L 78.439751 366.901401 
L 82.079319 363.072026 
L 85.718887 359.24265 
L 89.358455 355.413274 
L 92.998023 351.583898 
L 96.637591 347.754522 
L 100.277159 343.925147 
L 103.916727 340.095771 
L 107.556295 336.266395 
L 111.195863 332.437019 
L 114.83543 328.607643 
L 118.474998 324.778268 
L 122.114566 320.948892 
L 125.754134 317.119516 
L 129.393702 313.29014 
L 133.03327 309.460765 
L 136.672838 305.631389 
L 140.312406 301.802013 
L 143.951974 297.972637 
L 147.591542 294.143261 
L 151.23111 290.313886 
L 154.870678 286.48451 
L 158.510246 282.655134 
L 162.149813 278.825758 
L 165.789381 274.996382 
L 169.428949 271.167007 
L 173.068517 267.337631 
L 176.708085 263.508255 
L 180.347653 259.678879 
L 183.987221 255.849503 
L 187.626789 252.020128 
L 191.266357 248.190752 
L 194.905925 244.361376 
L 198.545493 240.532 
L 202.185061 236.702624 
L 205.824629 232.873249 
L 209.464196 229.043873 
L 213.103764 225.214497 
L 216.743332 221.385121 
L 220.3829 217.555745 
L 224.022468 213.72637 
L 227.662036 209.896994 
L 231.301604 206.067618 
L 234.941172 202.238242 
" clip-path="url(#pf6d925498f)" style="fill: none; stroke-dasharray: 11.1,4.8; stroke-dashoffset: 0; stroke: #ff0000; stroke-width: 3"/>
   </g>
   <g id="line2d_23">
    <path d="M 56.602344 360.131365 
L 60.241912 358.029608 
L 63.88148 355.862968 
L 67.521048 353.632346 
L 71.160615 351.338672 
L 74.800183 348.982901 
L 78.439751 346.566013 
L 82.079319 344.089017 
L 85.718887 341.552942 
L 89.358455 338.958846 
L 92.998023 336.307809 
L 96.637591 333.600934 
L 100.277159 330.83935 
L 103.916727 328.024206 
L 107.556295 325.156675 
L 111.195863 322.237951 
L 114.83543 319.26925 
L 118.474998 316.251808 
L 122.114566 313.186881 
L 125.754134 310.075747 
L 129.393702 306.919701 
L 133.03327 303.720057 
L 136.672838 300.478148 
L 140.312406 297.195325 
L 143.951974 293.872954 
L 147.591542 290.512418 
L 151.23111 287.115119 
L 154.870678 283.68247 
L 158.510246 280.215902 
L 162.149813 276.716857 
L 165.789381 273.186794 
L 169.428949 269.627182 
L 173.068517 266.039504 
L 176.708085 262.425254 
L 180.347653 258.785937 
L 183.987221 255.12307 
L 187.626789 251.438177 
L 191.266357 247.732794 
L 194.905925 244.008462 
L 198.545493 240.266735 
L 202.185061 236.50917 
L 205.824629 232.737331 
L 209.464196 228.95279 
L 213.103764 225.157123 
L 216.743332 221.351911 
L 220.3829 217.538739 
L 224.022468 213.719194 
L 227.662036 209.894867 
L 231.301604 206.067352 
L 234.941172 202.238242 
" clip-path="url(#pf6d925498f)" style="fill: none; stroke-dasharray: 11.1,4.8; stroke-dashoffset: 0; stroke: #ff0000; stroke-opacity: 0.4; stroke-width: 3"/>
   </g>
   <g id="line2d_24">
    <path d="M 56.602344 296.057949 
L 60.241912 296.057949 
L 63.88148 296.057949 
L 67.521048 296.057949 
L 71.160615 296.057949 
L 74.800183 296.057949 
L 78.439751 296.057949 
L 82.079319 296.057949 
L 85.718887 296.057949 
L 89.358455 296.057949 
L 92.998023 296.057949 
L 96.637591 296.057949 
L 100.277159 296.057949 
L 103.916727 296.057949 
L 107.556295 296.057949 
L 111.195863 296.057949 
L 114.83543 296.057949 
L 118.474998 296.057949 
L 122.114566 296.057949 
L 125.754134 296.057949 
L 129.393702 296.057949 
L 133.03327 296.057949 
L 136.672838 296.057949 
L 140.312406 296.057949 
L 143.951974 293.872954 
L 147.591542 290.512418 
L 151.23111 287.115119 
L 154.870678 283.68247 
L 158.510246 280.215902 
L 162.149813 276.716857 
L 165.789381 273.186794 
L 169.428949 269.627182 
L 173.068517 266.039504 
L 176.708085 262.425254 
L 180.347653 258.785937 
L 183.987221 255.12307 
L 187.626789 251.438177 
L 191.266357 247.732794 
L 194.905925 244.008462 
L 198.545493 240.266735 
L 202.185061 236.50917 
L 205.824629 232.737331 
L 209.464196 228.95279 
L 213.103764 225.157123 
L 216.743332 221.351911 
L 220.3829 217.538739 
L 224.022468 213.719194 
L 227.662036 209.894867 
L 231.301604 206.067352 
L 234.941172 202.238242 
" clip-path="url(#pf6d925498f)" style="fill: none; stroke-dasharray: 11.1,4.8; stroke-dashoffset: 0; stroke: #ff0000; stroke-opacity: 0.4; stroke-width: 3"/>
   </g>
   <g id="text_13">
    <!-- ${E_{URM}\cdot A}/{L}$ -->
    <g transform="translate(152.905311 326.080255) scale(0.1 -0.1)">
     <defs>
      <path id="DejaVuSans-Oblique-28" d="M 1081 4666 
L 4031 4666 
L 3928 4134 
L 1606 4134 
L 1338 2753 
L 3566 2753 
L 3463 2222 
L 1234 2222 
L 909 531 
L 3284 531 
L 3181 0 
L 172 0 
L 1081 4666 
z
" transform="scale(0.015625)"/>
      <path id="DejaVuSans-Oblique-38" d="M 991 4666 
L 1625 4666 
L 1075 1831 
Q 1041 1641 1027 1517 
Q 1013 1394 1013 1300 
Q 1013 869 1253 645 
Q 1494 422 1959 422 
Q 2563 422 2898 753 
Q 3234 1084 3378 1831 
L 3928 4666 
L 4563 4666 
L 4000 1753 
Q 3816 809 3300 359 
Q 2784 -91 1888 -91 
Q 1188 -91 780 261 
Q 372 613 372 1216 
Q 372 1325 387 1461 
Q 403 1597 434 1753 
L 991 4666 
z
" transform="scale(0.015625)"/>
      <path id="DejaVuSans-Oblique-35" d="M 1613 4147 
L 1294 2491 
L 2106 2491 
Q 2584 2491 2879 2755 
Q 3175 3019 3175 3444 
Q 3175 3784 2976 3965 
Q 2778 4147 2406 4147 
L 1613 4147 
z
M 2772 2241 
Q 2972 2194 3105 2009 
Q 3238 1825 3413 1275 
L 3809 0 
L 3144 0 
L 2778 1197 
Q 2638 1659 2453 1815 
Q 2269 1972 1888 1972 
L 1191 1972 
L 806 0 
L 172 0 
L 1081 4666 
L 2503 4666 
Q 3150 4666 3495 4373 
Q 3841 4081 3841 3531 
Q 3841 3044 3547 2687 
Q 3253 2331 2772 2241 
z
" transform="scale(0.015625)"/>
      <path id="DejaVuSans-Oblique-30" d="M 1081 4666 
L 2028 4666 
L 2572 1522 
L 4378 4666 
L 5350 4666 
L 4441 0 
L 3828 0 
L 4622 4091 
L 2791 897 
L 2175 897 
L 1581 4103 
L 788 0 
L 172 0 
L 1081 4666 
z
" transform="scale(0.015625)"/>
      <path id="DejaVuSans-d4f" d="M 684 2619 
L 1344 2619 
L 1344 1825 
L 684 1825 
L 684 2619 
z
" transform="scale(0.015625)"/>
      <path id="DejaVuSans-Oblique-24" d="M 2356 4666 
L 3072 4666 
L 3938 0 
L 3278 0 
L 3084 1197 
L 984 1197 
L 325 0 
L -341 0 
L 2356 4666 
z
M 2584 4044 
L 1275 1722 
L 2988 1722 
L 2584 4044 
z
" transform="scale(0.015625)"/>
      <path id="DejaVuSans-12" d="M 1625 4666 
L 2156 4666 
L 531 -594 
L 0 -594 
L 1625 4666 
z
" transform="scale(0.015625)"/>
      <path id="DejaVuSans-Oblique-2f" d="M 1075 4666 
L 1709 4666 
L 909 525 
L 3181 525 
L 3078 0 
L 172 0 
L 1075 4666 
z
" transform="scale(0.015625)"/>
     </defs>
     <use xlink:href="#DejaVuSans-Oblique-28" transform="translate(0 0.09375)"/>
     <use xlink:href="#DejaVuSans-Oblique-38" transform="translate(63.183594 -14.906201) scale(0.7)"/>
     <use xlink:href="#DejaVuSans-Oblique-35" transform="translate(114.418945 -14.906201) scale(0.7)"/>
     <use xlink:href="#DejaVuSans-Oblique-30" transform="translate(163.056641 -14.906201) scale(0.7)"/>
     <use xlink:href="#DejaVuSans-d4f" transform="translate(245.668945 0.09375)"/>
     <use xlink:href="#DejaVuSans-Oblique-24" transform="translate(296.938477 0.09375)"/>
     <use xlink:href="#DejaVuSans-12" transform="translate(365.34668 0.09375)"/>
     <use xlink:href="#DejaVuSans-Oblique-2f" transform="translate(399.038086 0.09375)"/>
    </g>
   </g>
   <g id="text_14">
    <!-- Idealized: -->
    <g transform="translate(152.905311 311.069102) scale(0.1 -0.1)">
     <defs>
      <path id="DejaVuSans-2c" d="M 628 4666 
L 1259 4666 
L 1259 0 
L 628 0 
L 628 4666 
z
" transform="scale(0.015625)"/>
      <path id="DejaVuSans-47" d="M 2906 2969 
L 2906 4863 
L 3481 4863 
L 3481 0 
L 2906 0 
L 2906 525 
Q 2725 213 2448 61 
Q 2172 -91 1784 -91 
Q 1150 -91 751 415 
Q 353 922 353 1747 
Q 353 2572 751 3078 
Q 1150 3584 1784 3584 
Q 2172 3584 2448 3432 
Q 2725 3281 2906 2969 
z
M 947 1747 
Q 947 1113 1208 752 
Q 1469 391 1925 391 
Q 2381 391 2643 752 
Q 2906 1113 2906 1747 
Q 2906 2381 2643 2742 
Q 2381 3103 1925 3103 
Q 1469 3103 1208 2742 
Q 947 2381 947 1747 
z
" transform="scale(0.015625)"/>
      <path id="DejaVuSans-5d" d="M 353 3500 
L 3084 3500 
L 3084 2975 
L 922 459 
L 3084 459 
L 3084 0 
L 275 0 
L 275 525 
L 2438 3041 
L 353 3041 
L 353 3500 
z
" transform="scale(0.015625)"/>
      <path id="DejaVuSans-1d" d="M 750 794 
L 1409 794 
L 1409 0 
L 750 0 
L 750 794 
z
M 750 3309 
L 1409 3309 
L 1409 2516 
L 750 2516 
L 750 3309 
z
" transform="scale(0.015625)"/>
     </defs>
     <use xlink:href="#DejaVuSans-2c"/>
     <use xlink:href="#DejaVuSans-47" transform="translate(29.5 0)"/>
     <use xlink:href="#DejaVuSans-48" transform="translate(92.984375 0)"/>
     <use xlink:href="#DejaVuSans-44" transform="translate(154.515625 0)"/>
     <use xlink:href="#DejaVuSans-4f" transform="translate(215.796875 0)"/>
     <use xlink:href="#DejaVuSans-4c" transform="translate(243.578125 0)"/>
     <use xlink:href="#DejaVuSans-5d" transform="translate(271.359375 0)"/>
     <use xlink:href="#DejaVuSans-48" transform="translate(323.84375 0)"/>
     <use xlink:href="#DejaVuSans-47" transform="translate(385.375 0)"/>
     <use xlink:href="#DejaVuSans-1d" transform="translate(448.859375 0)"/>
    </g>
   </g>
   <g id="text_15">
    <!-- Compression -->
    <g transform="translate(74.436227 258.530066) scale(0.1 -0.1)">
     <defs>
      <path id="DejaVuSans-26" d="M 4122 4306 
L 4122 3641 
Q 3803 3938 3442 4084 
Q 3081 4231 2675 4231 
Q 1875 4231 1450 3742 
Q 1025 3253 1025 2328 
Q 1025 1406 1450 917 
Q 1875 428 2675 428 
Q 3081 428 3442 575 
Q 3803 722 4122 1019 
L 4122 359 
Q 3791 134 3420 21 
Q 3050 -91 2638 -91 
Q 1578 -91 968 557 
Q 359 1206 359 2328 
Q 359 3453 968 4101 
Q 1578 4750 2638 4750 
Q 3056 4750 3426 4639 
Q 3797 4528 4122 4306 
z
" transform="scale(0.015625)"/>
     </defs>
     <use xlink:href="#DejaVuSans-26"/>
     <use xlink:href="#DejaVuSans-52" transform="translate(69.828125 0)"/>
     <use xlink:href="#DejaVuSans-50" transform="translate(131.015625 0)"/>
     <use xlink:href="#DejaVuSans-53" transform="translate(228.421875 0)"/>
     <use xlink:href="#DejaVuSans-55" transform="translate(291.90625 0)"/>
     <use xlink:href="#DejaVuSans-48" transform="translate(330.8125 0)"/>
     <use xlink:href="#DejaVuSans-56" transform="translate(392.34375 0)"/>
     <use xlink:href="#DejaVuSans-56" transform="translate(444.4375 0)"/>
     <use xlink:href="#DejaVuSans-4c" transform="translate(496.53125 0)"/>
     <use xlink:href="#DejaVuSans-52" transform="translate(524.3125 0)"/>
     <use xlink:href="#DejaVuSans-51" transform="translate(585.5 0)"/>
    </g>
   </g>
   <g id="text_16">
    <!-- Tension, $F=0$ -->
    <g transform="translate(288.44282 192.856271) scale(0.1 -0.1)">
     <defs>
      <path id="DejaVuSans-37" d="M -19 4666 
L 3928 4666 
L 3928 4134 
L 2272 4134 
L 2272 0 
L 1638 0 
L 1638 4134 
L -19 4134 
L -19 4666 
z
" transform="scale(0.015625)"/>
      <path id="DejaVuSans-f" d="M 750 794 
L 1409 794 
L 1409 256 
L 897 -744 
L 494 -744 
L 750 256 
L 750 794 
z
" transform="scale(0.015625)"/>
      <path id="DejaVuSans-20" d="M 678 2906 
L 4684 2906 
L 4684 2381 
L 678 2381 
L 678 2906 
z
M 678 1631 
L 4684 1631 
L 4684 1100 
L 678 1100 
L 678 1631 
z
" transform="scale(0.015625)"/>
     </defs>
     <use xlink:href="#DejaVuSans-37" transform="translate(0 0.015625)"/>
     <use xlink:href="#DejaVuSans-48" transform="translate(44.083984 0.015625)"/>
     <use xlink:href="#DejaVuSans-51" transform="translate(105.607422 0.015625)"/>
     <use xlink:href="#DejaVuSans-56" transform="translate(168.986328 0.015625)"/>
     <use xlink:href="#DejaVuSans-4c" transform="translate(221.085938 0.015625)"/>
     <use xlink:href="#DejaVuSans-52" transform="translate(248.869141 0.015625)"/>
     <use xlink:href="#DejaVuSans-51" transform="translate(310.050781 0.015625)"/>
     <use xlink:href="#DejaVuSans-f" transform="translate(373.429688 0.015625)"/>
     <use xlink:href="#DejaVuSans-3" transform="translate(405.216797 0.015625)"/>
     <use xlink:href="#DejaVuSans-Oblique-29" transform="translate(437.003906 0.015625)"/>
     <use xlink:href="#DejaVuSans-20" transform="translate(514.005859 0.015625)"/>
     <use xlink:href="#DejaVuSans-13" transform="translate(617.277344 0.015625)"/>
    </g>
   </g>
   <g id="text_17">
    <!-- $1$ -->
    <g transform="translate(127.937875 344.844197) scale(0.1 -0.1)">
     <use xlink:href="#DejaVuSans-14" transform="translate(0 0.09375)"/>
    </g>
   </g>
  </g>
 </g>
 <defs>
  <clipPath id="pf6d925498f">
   <rect x="56.602344" y="14.598828" width="356.677656" height="375.278828"/>
  </clipPath>
 </defs>
</svg>
